PathFileType	4	(X/Y/Z)	Patient4_TMGait_0pt7_01_left_39.trc.trc
DataRate	CameraRate	NumFrames	NumMarkers	Units	OrigDataRate	OrigDataStartFrame	OrigNumFrames
85.365853658537	85.365853658537	5	33	mm	85.365853658537	18	       141
Frame#	Time	Sacral			L.Shoulder			Chest			R.Shoulder			Neck			R.ASIS			L.ASIS			R.Thigh.Superior			R.Thigh.Lateral			R.Thigh.Inferior			R.Patella			L.Thigh.Superior			L.Thigh.Lateral			L.Thigh.Inferior			L.Patella			L.Shank.Superior			L.Shank.Lateral			L.Shank.Inferior			R.Shank.Superior			R.Shank.Lateral			R.Shank.Inferior			R.Heel			R.Midfoot.Superior			R.Midfoot.Lateral			R.Toe			L.Heel			L.Midfoot.Lateral			L.Midfoot.Superior			L.Toe			L.Elbow			L.Wrist			R.Elbow			R.Wrist			
		X1	Y1	Z1	X2	Y2	Z2	X3	Y3	Z3	X4	Y4	Z4	X5	Y5	Z5	X6	Y6	Z6	X7	Y7	Z7	X8	Y8	Z8	X9	Y9	Z9	X10	Y10	Z10	X11	Y11	Z11	X12	Y12	Z12	X13	Y13	Z13	X14	Y14	Z14	X15	Y15	Z15	X16	Y16	Z16	X17	Y17	Z17	X18	Y18	Z18	X19	Y19	Z19	X20	Y20	Z20	X21	Y21	Z21	X22	Y22	Z22	X23	Y23	Z23	X24	Y24	Z24	X25	Y25	Z25	X26	Y26	Z26	X27	Y27	Z27	X28	Y28	Z28	X29	Y29	Z29	X30	Y30	Z30	X31	Y31	Z31	X32	Y32	Z32	X33	Y33	Z33	

18	45.319142857143	857.663791170086	1006.036642416845	525.570824336567	1019.580207451189	1426.483741876168	318.714317735174	1147.061343050571	1352.387470706667	459.427132773542	1099.451117630150	1430.916720051597	644.203579663173	1049.718864344510	1486.392508431187	472.527744991658	1092.285493396975	936.742387598422	613.480939589387	1047.767763641307	951.808016064989	341.456487950643	1089.699992954665	724.665765040121	586.759527507990	991.309666373250	630.104997820681	655.421774443332	1045.393296283998	566.414312119362	570.280558823386	1027.594261824939	482.128497856600	575.926771170142	1128.900697092938	779.401231980032	370.293775430968	1091.183740546789	654.198965011075	283.404496742035	1196.662536521519	597.144397853384	344.706470073283	1229.215898275711	534.437085990324	335.069257118028	1214.143435795146	461.508034777877	322.087616348723	1152.358427007460	331.156744153182	265.930374984253	1243.708183989566	233.042624657684	316.104026589413	992.221494158371	396.864541053337	584.640282233736	913.968997928001	299.302060532981	648.521808245485	943.330666229253	202.167067086135	582.000159948544	796.285415239918	42.678817237448	552.954747202513	967.828697737591	96.122354225261	587.932968369408	879.564423325502	36.476419922215	626.947276254126	1088.151970089413	42.830434937687	615.500557354755	1168.425547527628	47.680433551298	346.693895803491	1244.322071474300	57.671329035176	268.677284963016	1310.126323375643	139.325145001068	292.223606439997	1446.907628115796	116.525903257119	269.250176874740	852.891286278489	1118.859032754806	222.128574542632	793.206125806099	866.628141067102	252.404690790176	1269.498552125559	1138.376580285283	754.308601251856	1502.473766516077	1188.632740532737	663.109676784340	
19	45.330857142857	858.771389817299	1004.897009264859	524.176799035271	1018.794656424107	1425.570787091463	316.827913221507	1146.912948495421	1351.732056207113	457.032633784395	1099.871839167659	1430.237200552820	641.865289190198	1049.270136549728	1485.424367286479	470.498380719007	1093.394694678690	935.570953639559	611.207322016748	1048.249178191892	950.775652351819	339.164159317596	1089.441230350566	723.032614040679	584.924223665904	990.383600619843	629.024958221642	653.797683391274	1043.713904649957	564.837385615626	568.611242520114	1025.013371073438	480.395428911546	574.208417337564	1128.305243587683	776.946808791184	368.135333244445	1088.237884608552	650.990626107440	283.152493173081	1193.814863110483	593.856576255396	343.669368592774	1225.697669222104	531.694613670368	335.146336554666	1211.711780867500	458.952104502460	322.518163356820	1151.444094840426	327.222421924308	268.241900059241	1244.931023670499	231.043708378937	318.335279912229	988.625687407390	395.401766293542	583.284591885022	909.329311548768	299.024425744202	647.763718375942	936.860902421653	201.393018526998	581.365809171550	788.089461246425	42.756577205287	553.029061929934	959.682441613173	96.022241592475	587.797456025815	871.353690568436	36.451011476753	627.014157702183	1079.945332267525	42.564040330559	615.529444030396	1172.734742743427	45.335881253120	351.019421809283	1248.045089930258	55.129883865064	272.497424942702	1313.234168299888	137.457233917229	294.898840937555	1450.043055569991	115.565460254968	271.491039091993	848.198570489626	1120.429501556436	221.968198758794	785.922804551049	868.930903998989	254.289037209787	1273.161074408008	1140.069785670305	750.614147926918	1503.509957483699	1197.958646944352	658.574005000694	
20	45.342571428571	860.029259249166	1003.638333136512	522.515053216033	1018.082243105156	1424.526767029732	314.788119342323	1146.822024824528	1351.035727308289	454.550772954060	1100.206071825298	1429.497559993341	639.417775924368	1048.791638084697	1484.369957500703	468.316391092077	1094.625588271538	934.272385890051	608.854065990771	1049.025193324811	949.673375402058	336.788053263422	1089.430353716670	721.301104107385	582.959821416677	989.718808320997	627.813853419618	652.003715374692	1042.447686820273	563.111991704938	566.851342873625	1022.831665982550	478.441679666702	572.370211673415	1128.260017333435	774.606742379162	365.694711233239	1085.564987592549	647.664337648537	283.153019317329	1191.504411859145	590.659600987109	342.539338708088	1222.479031690663	528.640498194297	335.295786440598	1209.144621354485	455.934825617648	323.097710349840	1149.336379635507	323.337751132125	270.918710139875	1244.212643780584	228.468148324878	320.873004055493	985.338967342783	393.761650259361	581.797524566755	904.888157065936	298.701443435380	646.903630143053	930.501317726097	200.547786254889	580.697782708002	779.901548029041	42.854019413145	553.117417770635	951.550519219029	95.920379312257	587.649568836118	863.160225158656	36.437129733240	627.104065088486	1071.749711531395	42.247038228947	615.580063661547	1173.621778877729	43.343050258769	355.762767237968	1248.196173163399	52.428170222103	276.551655039045	1313.582639611320	134.583005229505	297.897981194103	1450.056547673295	112.325904320364	273.626507448534	844.090159987513	1121.595455552921	221.695919915097	779.877201952732	870.675733529778	255.852372051457	1276.107771211380	1141.336819652468	747.060060017526	1503.746339263744	1206.164288114439	654.234637115320	
21	45.354285714286	861.405031819874	1002.245688537439	520.583508462749	1017.444863242053	1423.340566869523	312.603830915486	1146.791268045290	1350.280412536249	451.995627758663	1100.444100841372	1428.670169161589	636.888808231216	1048.286067630556	1483.219878096532	465.995074856839	1095.964849757553	932.838416458913	606.441114231735	1050.087726836020	948.488513563927	334.359484288928	1089.649857945560	719.472695758978	580.889045242206	989.282776814242	626.480054949097	650.058370453060	1041.561524351567	561.240865921509	565.024423428186	1021.022192086051	476.259101183418	570.443774144100	1128.783972202661	772.351755684502	363.045116891721	1083.281756727459	644.293466208404	283.330154743045	1189.774473480499	587.567489474903	341.394242010958	1219.631174378520	525.323375683996	335.559165835325	1206.578588412263	452.544468365372	323.803289386770	1146.365248355223	319.537438439473	273.701666155466	1241.892717382075	225.358479592875	323.560105695345	982.312786527875	391.959202119659	580.197273656112	900.613908847284	298.341714154429	645.963119625093	924.229837155456	199.651980919559	580.008946500771	771.714305737206	43.004459179147	553.229714944279	943.433223885905	95.823880154645	587.497059575229	854.983964726076	36.449328221604	627.222038928039	1063.566126311459	41.882231628755	615.654052089934	1171.472218079944	41.636200760232	360.525139397162	1245.280097215549	49.600383699069	280.549361956956	1311.607939523720	130.775107584020	301.096787755513	1447.465261265194	106.965477463641	275.714926534385	840.583341424184	1122.308360923750	221.265787733192	775.089452938136	871.802892425513	257.057104848841	1278.360479603880	1142.112991465157	743.685314345146	1503.247667430361	1213.244787129759	650.096261487906	
22	45.366000000000	862.858695470084	1000.719894269006	518.394710921572	1016.886044227505	1422.017557580430	310.284850347774	1146.823769771909	1349.460901922518	449.380896652922	1100.585979176564	1427.743825262515	634.305905110689	1047.767801610886	1481.982620613532	463.546049657537	1097.394162480971	931.279222463030	603.985341566477	1051.407229504685	947.230748873432	331.908174872066	1090.085607538828	717.568091932980	578.741211569200	989.051943064520	625.047063985492	647.981428669369	1041.031265060630	559.246527898099	563.152444095115	1019.575106844553	473.855900433905	568.466421509059	1129.862656603603	770.171078401269	360.279190121402	1081.510071495072	640.994034611025	283.561090902065	1188.649494851886	584.619687967821	340.289645242225	1217.222073030616	521.842542120318	335.932114931248	1204.160223012851	448.925196341988	324.572992838906	1142.911100484804	315.904127142889	276.309581267437	1238.380934774463	221.848146196861	326.218117270705	979.511372015768	390.026883859134	578.509430093975	896.483729863427	297.973459332053	644.965729065196	918.035436889281	198.744091742135	579.316369769821	763.523422233524	43.267040923102	553.378497863521	935.341839056107	95.744738666319	587.353913645048	846.826667029974	36.512116789732	627.371438667316	1055.397745040181	41.471925002450	615.751628896805	1166.815448282715	40.204534276706	364.937269651036	1239.934590508616	46.746529787542	284.225848107625	1307.824245264249	126.232459910033	304.345401219274	1442.864962975433	99.851489278699	277.801924646098	837.708292038344	1122.526841491295	220.640202958010	771.572954884443	872.265733748598	257.867657550877	1279.940222328054	1142.342053944250	740.517780845991	1502.084023051435	1219.190155316770	646.168742496385	
